<?xml version="1.0" standalone="no"?>
<!DOCTYPE svg PUBLIC "-//W3C//DTD SVG 20010904//EN"
 "http://www.w3.org/TR/2001/REC-SVG-20010904/DTD/svg10.dtd">
<svg version="1.0" xmlns="http://www.w3.org/2000/svg"
 width="116.000000pt" height="116.000000pt" viewBox="0 0 116.000000 116.000000"
 preserveAspectRatio="xMidYMid meet">
<metadata>
Created by potrace 1.11, written by Peter Selinger 2001-2013
</metadata>
<g transform="translate(0.000000,116.000000) scale(0.100000,-0.100000)"
fill="#000000" stroke="none">
<path d="M0 580 l0 -580 280 0 280 0 0 54 c0 44 -4 55 -17 59 -14 4 -12 5 5 6
20 1 22 -3 22 -59 l0 -60 295 0 295 0 0 580 0 580 -580 0 -580 0 0 -580z m563
453 c-7 -2 -21 -2 -30 0 -10 3 -4 5 12 5 17 0 24 -2 18 -5z m-100 -18 c-150
-41 -259 -137 -319 -282 -13 -32 -24 -51 -24 -43 0 8 13 43 30 78 31 67 111
159 168 194 51 32 143 68 172 67 15 0 3 -6 -27 -14z m252 -15 c121 -42 208
-116 264 -228 127 -251 -9 -547 -287 -623 -36 -11 -77 -19 -89 -19 l-23 0 0
190 0 190 49 0 c46 0 50 -2 55 -28 7 -27 15 -114 20 -205 3 -44 19 -78 31 -66
5 6 16 160 15 214 0 16 5 52 12 79 10 39 10 50 0 54 -21 7 -13 71 19 150 38
94 35 145 -8 179 -29 24 -45 28 -135 38 l-58 6 0 45 0 44 38 0 c22 0 65 -9 97
-20z m-145 -129 l0 -48 -72 -6 c-40 -3 -73 -5 -74 -4 -1 1 -4 20 -6 42 -3 38
-2 40 37 51 22 7 57 13 78 13 l37 1 0 -49z m-165 -53 c11 -151 11 -231 -1
-235 -6 -2 -15 38 -22 109 -7 62 -15 137 -18 166 -6 48 -5 52 14 52 18 0 21
-8 27 -92z m362 4 c7 -27 -26 -139 -36 -123 -5 8 -111 31 -143 31 -5 0 -8 20
-8 45 0 41 2 45 24 45 14 0 28 5 32 11 3 6 20 17 37 24 41 17 85 2 94 -33z
m-197 -117 c0 -9 -9 -15 -24 -15 -13 0 -45 -3 -71 -7 -38 -5 -47 -3 -43 8 9
27 138 40 138 14z m111 -30 l46 -6 -6 -37 c-4 -20 -10 -36 -14 -35 -4 1 -34 5
-67 9 l-60 7 0 38 c0 36 2 38 28 34 15 -2 48 -7 73 -10z m-564 -42 c-3 -10 -5
-4 -5 12 0 17 2 24 5 18 2 -7 2 -21 0 -30z m453 -43 c0 -18 -7 -20 -72 -20
-85 0 -83 17 3 30 30 4 57 8 62 9 4 0 7 -8 7 -19z m78 -27 c-10 -2 -26 -2 -35
0 -10 3 -2 5 17 5 19 0 27 -2 18 -5z m-80 -25 c3 -16 -6 -18 -87 -18 -85 0
-91 1 -91 20 0 20 5 21 87 18 74 -3 88 -6 91 -20z m-451 -45 c-3 -10 -5 -4 -5
12 0 17 2 24 5 18 2 -7 2 -21 0 -30z m314 -128 c-2 -140 -6 -168 -22 -144 -10
16 -12 273 -2 283 20 19 25 -12 24 -139z m-234 -45 c41 -60 76 -92 147 -134
33 -20 55 -36 49 -36 -22 0 -130 79 -170 124 -44 50 -103 157 -103 185 0 9 11
-9 23 -39 13 -31 37 -76 54 -100z m293 -192 c18 -5 13 -6 -15 -2 -22 3 -47 10
-55 15 -16 10 24 3 70 -13z"/>
</g>
</svg>
