<svg xmlns="http://www.w3.org/2000/svg" viewBox="0 0 226 226"><defs><style>.cls-1{fill:#299626;}.cls-2,.cls-3{fill:#fff;stroke:#fff;}.cls-2{stroke-miterlimit:10;}.cls-3{stroke-linecap:round;stroke-linejoin:round;stroke-width:0.71px;}</style></defs><title>assembly</title><g id="Layer_2" data-name="Layer 2"><g id="buttonShapes"><rect class="cls-1" width="226" height="226" rx="12" ry="12"/></g><g id="buttonIcons"><path class="cls-2" d="M149.17,38a19.69,19.69,0,0,0-19.69-19.69H84.67A19.69,19.69,0,0,0,65,38V171.14H82.34V46.77A13.85,13.85,0,0,1,96.18,32.92H115c16.27,0,19.69,3.32,19.69,19.69h14.46Z"/><path class="cls-2" d="M134.72,52.62l-2.88,2.88a1,1,0,0,0,.67,1.62h19.18a1,1,0,0,0,.67-1.62l-3.19-3"/><path class="cls-2" d="M148,95.82V80.58l2.4-2.88c.5-.6.15-1.62-.56-1.62h-16c-.71,0-1.06,1-.56,1.62l2.66,3V95.82Z"/><rect class="cls-2" x="135.91" y="110.09" width="12.05" height="19.34"/><path class="cls-2" d="M136,128.05h12.23a1,1,0,0,1,1,1v6.43a0,0,0,0,1,0,0H135a0,0,0,0,1,0,0V129A1,1,0,0,1,136,128.05Z"/><path class="cls-2" d="M145.25,171.14H139a7.17,7.17,0,0,1-7.12-8l3.2-27.71h14.14l3.2,27.71A7.17,7.17,0,0,1,145.25,171.14Z"/><path class="cls-2" d="M62.24,108.62a2.29,2.29,0,0,1-2.29-2.29V99.91a2.29,2.29,0,0,1,2.29-2.29Z"/><path class="cls-2" d="M85.06,108.62h63.15a2.29,2.29,0,0,0,2.29-2.29V99.91a2.29,2.29,0,0,0-2.29-2.29H85.06Z"/><rect class="cls-2" x="100.11" y="59.23" width="112.66" height="14.87"/><path class="cls-3" d="M100,71.94s12.69,2.77,25.38-.06,16.28-4.44,26.21-2.63S167,73.9,173.33,71.88s37.52-4.16,39.31-1.07"/><path class="cls-3" d="M100,69.58s9.65,2.95,16.28,1.33a153.55,153.55,0,0,1,24-3.84c7.17-.4,17.65,1.21,22.34.81s14.34-3,21-3,22.62,5.86,29.1,4.24"/><path class="cls-3" d="M100,65.57s18.48,4.44,25.38,1.62,11.59-3.43,20.14-3,19.59.58,23.45-.11,14.9-1.12,19.86,0,22.07,2.34,23.86-.69"/><path class="cls-3" d="M212.64,62s.14,1.52-11.72.94-15.72-3.3-26.21-2.92-21,2.23-29,2.57-13.24.23-19.86.46-11,1.07-14.62,1.17-11.31,0-11.31,0"/></g></g></svg>