<svg xmlns="http://www.w3.org/2000/svg" viewBox="0 0 226 226"><defs><style>.cls-1{fill:#2a80b9;}.cls-2{fill:#fff;}</style></defs><title>cleaning</title><g id="Layer_2" data-name="Layer 2"><g id="buttonShapes"><rect class="cls-1" width="226" height="226" rx="12" ry="12"/><path class="cls-2" d="M155.71,20.53l-1.23-.45A2,2,0,0,0,152,21.25l-33.32,91.38c-.45-.06-.9-.1-1.35-.13s-.91-.05-1.37-.06a26.26,26.26,0,0,0-20.32,8.64l16,3.12,1.3.25,1.3.25,5.21,1,1.3.25,1.3.25L136.36,129c0-.58-.08-1.14-.15-1.68-.77-5.65-4.69-10-10-12.53-.39-.19-.79-.37-1.2-.53s-.82-.31-1.23-.45L156.88,23A2,2,0,0,0,155.71,20.53Z"/><path class="cls-2" d="M112.28,129.67l-20.12-3.91c-7.37,11.8-10,26.49-16.66,33.9-2.47,2.77-7.43,9.59-15.29,10.92l42.86,5.24,11.74-17.47-5.18,18.28L120.92,178s13.29-26.26,15.24-43.69L119.07,131Z"/></g></g></svg>