<svg xmlns="http://www.w3.org/2000/svg" viewBox="0 0 167 167"><defs><style>.cls-1{fill:#27ae60;}.cls-2{fill:#fff;}</style></defs><title>customer</title><g id="Layer_2" data-name="Layer 2"><g id="elements"><g id="customers"><rect class="cls-1" width="167" height="167" rx="12" ry="12"/><path class="cls-2" d="M83.6,68.26c13.22,0,23.94-12.55,23.94-28,0-21.46-10.72-28-23.94-28s-23.94,6.56-23.94,28C59.66,55.71,70.38,68.26,83.6,68.26Z"/><path class="cls-2" d="M136.48,109.51,124.4,82.3a6.06,6.06,0,0,0-2.73-2.91l-18.75-9.76a1.21,1.21,0,0,0-1.29.11,29.58,29.58,0,0,1-36.06,0,1.21,1.21,0,0,0-1.29-.11L45.54,79.39a6.06,6.06,0,0,0-2.73,2.91L30.73,109.51A6,6,0,0,0,36.25,118H131a6,6,0,0,0,5.52-8.49Z"/></g></g></g></svg>