<svg xmlns="http://www.w3.org/2000/svg" viewBox="0 0 226 226"><defs><style>.cls-1{fill:#299626;}.cls-2,.cls-3{fill:#fff;}.cls-2{stroke:#fff;stroke-miterlimit:10;}</style></defs><title>cutting</title><g id="Layer_2" data-name="Layer 2"><g id="buttonShapes"><rect class="cls-1" width="226" height="226" rx="12" ry="12"/></g><g id="buttonIcons"><path class="cls-2" d="M158.49,150.19c1.35-2.31,3.52-4.84,3.74-7.67a22.82,22.82,0,0,0-2.65-4,2.23,2.23,0,1,1,1.5-.65c.31.42,1.18,1.62,2.12,3.17,1.2,1,2.63,1.36,3.29,3.37,1.48-2.32,2.73-2.71,1.93-6-.23-.93-.73-1.64-.37-2.78a2.93,2.93,0,0,1,1.61-1.32c1.35-.24,2.5,1.14,3,2.4,1.21-2.89,2.62-4.47,2.15-7.72-.56-3.79,1.79-4.92,4.06-1.47-.24-1.47.27-2.62.31-4,.06-2.44-1.33-2.34-1.95-4.25-1-3.15,5-5.22,5.32-.83,1.44-3.14,1.26-5.91-1.1-8.13-1.22-1.15-2.38-2.17,0-3.4,1.49-.77,2.55-.37,3.71.93-.8-1.57-.24-2.83-.53-4.47-.37-2.08-1.14-1.73-2.48-3-3-2.75,1.82-5.44,4.21-2.66-.22-3.69-1.19-5-3.85-7.21-3.05-2.54-1.07-4.93,2.6-3.61-1.4-1.42-1.19-3.69-2.36-5.18-1.42-1.83-3.67-1.36-5.18-2.7a3.86,3.86,0,0,1,5.16-2.3c-1.23-1.18-1.21-2.84-2.56-4s-2.57-.36-3.91-1.16c-3.19-1.9,1.25-5.36,3.31-4.3a22.15,22.15,0,0,0-3-3.46c-1.52-1.5-2.41-1.16-4.13-1.53-4.23-.9-1.57-4.14,1.73-4.11-2.41-1.49-5.05-3.92-8.08-4l-1,.08a21.83,21.83,0,0,0-2.62,2.06,2.23,2.23,0,1,1-.72-1.46,42.82,42.82,0,0,1,5.89-4c-1.55-1.2-2.23-2-5-1.41-.93.2-1.64.67-2.76.28a3,3,0,0,1-1.3-1.63c-.22-1.34,1.15-2.45,2.4-2.9-2.86-1.28-4.4-2.73-7.63-2.35-3.76.44-4.86-1.92-1.42-4.06-1.46.2-2.6-.35-4-.42-2.42-.13-2.33,1.25-4.23,1.81-3.14.92-5.12-5.06-.77-5.3-3.1-1.52-5.84-1.42-8.07.86-1.15,1.18-2.17,2.3-3.37-.12-.74-1.5-.34-2.54,1-3.65-1.57.74-2.81.16-4.43.4-2.07.3-1.72,1.08-3,2.37-2.75,2.85-5.38-2-2.59-4.24-3.66.11-5,1-7.18,3.61-2.54,3-4.9.92-3.56-2.67-1.42,1.34-3.67,1.08-5.16,2.18-1.82,1.35-1.38,3.59-2.73,5.06a3.89,3.89,0,0,1-2.23-5.17c-1.18,1.19-2.83,1.12-4,2.42s-.38,2.53-1.19,3.84c-1.92,3.1-5.29-1.39-4.23-3.4a21.37,21.37,0,0,0-3.46,2.89c-1.51,1.46-1.17,2.35-1.55,4-.94,4.16-4.12,1.44-4.06-1.83-1.5,2.34-3.93,4.89-4,7.89l-.73,2.81c.65,1.41,1.1,2.57,1.26,3a2.24,2.24,0,1,1-1.36.91,24.17,24.17,0,0,0-2.92-6A4.09,4.09,0,0,1,74,48.13l-.1-.13c-1.5,2.32-2.75,2.74-1.95,6.06.23.95.73,1.67.36,2.83a3,3,0,0,1-1.64,1.35c-1.37.25-2.54-1.15-3-2.43-1.24,2.95-2.69,4.55-2.21,7.86.55,3.85-1.84,5-4.14,1.51.24,1.49-.29,2.67-.33,4.09-.07,2.48,1.34,2.38,2,4.32,1,3.21-5.07,5.32-5.42.86-1.48,3.2-1.31,6,1.1,8.27,1.24,1.17,2.42,2.2,0,3.46-1.52.78-2.6.38-3.77-.94.8,1.6.24,2.88.52,4.54.37,2.12,1.16,1.76,2.52,3,3,2.79-1.87,5.54-4.29,2.71.21,3.76,1.19,5.09,3.89,7.32,3.1,2.57,1.07,5-2.65,3.68,1.42,1.44,1.2,3.75,2.38,5.27,1.44,1.86,3.73,1.37,5.27,2.73a4,4,0,0,1-5.26,2.35c1.25,1.2,1.23,2.89,2.59,4s2.61.36,4,1.17c3.24,1.93-1.29,5.45-3.38,4.38A22.37,22.37,0,0,0,63.45,130c1.54,1.53,2.45,1.17,4.2,1.54,4.3.91,1.58,4.21-1.78,4.19,2.1,1.3,4.36,3.28,6.91,3.86A22.92,22.92,0,0,0,76.93,137a2.23,2.23,0,1,1,.62,1.51c-.37.27-1.37,1-2.67,1.75-1.27,1.28-1.42,3-3.65,3.76,2.39,1.45,2.82,2.7,6.11,1.84.93-.25,1.64-.76,2.79-.42a3,3,0,0,1,1.39,1.6c.28,1.35-1.07,2.54-2.33,3.06,3,1.17,4.59,2.56,7.86,2,3.81-.63,5,1.72,1.61,4.06,1.48-.27,2.65.23,4.07.24,2.46,0,2.32-1.38,4.23-2,3.15-1.08,5.42,4.9,1,5.35,3.21,1.4,6,1.17,8.17-1.25,1.12-1.25,2.12-2.44,3.44,0,.82,1.49.45,2.56-.83,3.75,1.56-.83,2.85-.29,4.49-.61,2.09-.4,1.71-1.18,2.93-2.55,2.69-3,5.55,1.74,2.81,4.19,3.72-.29,5-1.29,7.16-4,2.46-3.12,4.94-1.16,3.73,2.55,1.39-1.43,3.69-1.27,5.16-2.46,1.8-1.46,1.26-3.72,2.57-5.27a3.93,3.93,0,0,1,2.48,5.15c1.15-1.26,2.83-1.27,3.93-2.64s.28-2.59,1.05-4c1.82-3.25,5.44,1.16,4.44,3.25a21.94,21.94,0,0,0,3.4-3.1c1.47-1.55,1.1-2.44,1.41-4.18C155.07,144.24,158.42,146.86,158.49,150.19ZM112.38,104A9.66,9.66,0,1,1,126,104,9.66,9.66,0,0,1,112.38,104Z"/><path class="cls-2" d="M62.52,161.11A82.9,82.9,0,1,1,179.76,43.87Z"/><path class="cls-1" d="M63.53,154c-29.27-29.27-28.38-77.62,2-108s78.73-31.27,108-2Z"/><path class="cls-3" d="M87.63,51a44,44,0,0,1,62.23,0"/><path class="cls-2" d="M154.69,134A49.9,49.9,0,0,1,86,135.84"/></g></g></svg>