<svg xmlns="http://www.w3.org/2000/svg" viewBox="0 0 226 226"><defs><style>.cls-1{fill:#299626;}.cls-2{fill:#fff;stroke:#fff;stroke-miterlimit:10;}</style></defs><title>fitup</title><g id="Layer_2" data-name="Layer 2"><g id="buttonShapes"><rect class="cls-1" width="226" height="226" rx="12" ry="12"/></g><g id="buttonIcons"><polygon class="cls-2" points="114.45 171.68 114.45 146.92 137.73 157.12 137.73 108.76 114.45 118.96 114.45 70.76 137.73 80.96 137.73 32.6 114.45 42.8 114.45 18.85 186.25 18.97 186.25 171.68 114.45 171.68"/><polygon class="cls-2" points="33.42 171.68 33.42 18.85 81.71 18.85 81.71 42.93 104.99 32.73 104.99 80.93 81.71 70.73 81.71 119.09 104.99 108.89 104.99 157.09 81.71 146.89 81.71 171.68 33.42 171.68"/><polygon class="cls-2" points="114.45 171.68 114.45 146.92 137.73 157.12 137.73 108.76 114.45 118.96 114.45 70.76 137.73 80.96 137.73 32.6 114.45 42.8 114.45 18.85 186.25 18.97 186.25 171.68 114.45 171.68"/><polygon class="cls-2" points="33.42 171.68 33.42 18.85 81.71 18.85 81.71 42.93 104.99 32.73 104.99 80.93 81.71 70.73 81.71 119.09 104.99 108.89 104.99 157.09 81.71 146.89 81.71 171.68 33.42 171.68"/></g></g></svg>