<svg xmlns="http://www.w3.org/2000/svg" viewBox="0 0 167 167"><defs><style>.cls-1{fill:#2980b9;}.cls-2{fill:#fff;}</style></defs><title>furniture</title><g id="Layer_2" data-name="Layer 2"><g id="elements"><g id="furniture"><rect class="cls-1" width="167" height="167" rx="12" ry="12"/><path class="cls-2" d="M125.86,60.76A17.85,17.85,0,0,0,108,78.58v3.26c-3.95-1.41-11.58-3.26-24.51-3.26S63,80.43,59,81.84V78.58A17.85,17.85,0,0,0,41.18,60.76,11.14,11.14,0,0,0,36.9,82.19,3.33,3.33,0,0,1,39,85.27l2.23,8.91A15.62,15.62,0,0,0,55,109.67a5.44,5.44,0,1,0,4.86.1h47.31a5.43,5.43,0,1,0,4.85-.1,15.62,15.62,0,0,0,13.82-15.49l2.23-8.91a3.34,3.34,0,0,1,2.05-3.08,11.14,11.14,0,0,0-4.28-21.43Z"/><path class="cls-2" d="M65.14,73.37A102.7,102.7,0,0,1,83.52,71.9a102.7,102.7,0,0,1,18.38,1.48,24.58,24.58,0,0,1,15-17.61V43.87a33.43,33.43,0,0,0-66.85,0v11.9A24.58,24.58,0,0,1,65.14,73.37Z"/></g></g></g></svg>