<svg xmlns="http://www.w3.org/2000/svg" viewBox="0 0 167 167"><defs><style>.cls-1{fill:#e74c3c;}.cls-2{fill:#fff;}</style></defs><title>jobs_1</title><g id="Layer_2" data-name="Layer 2"><g id="elements"><g id="jobs"><rect class="cls-1" width="167" height="167" rx="12" ry="12"/><path class="cls-2" d="M137.06,32.81H70.41a.27.27,0,0,0-.26.26v6.24a.27.27,0,0,0,.26.26h66.66a.27.27,0,0,0,.26-.26V33.07A.25.25,0,0,0,137.06,32.81Z"/><circle class="cls-2" cx="46.12" cy="73.49" r="8.36"/><circle class="cls-2" cx="46.12" cy="105.15" r="8.4"/><path class="cls-2" d="M70.41,50.87h31.5a.27.27,0,0,0,.26-.26V44.37a.27.27,0,0,0-.26-.26H70.41a.27.27,0,0,0-.26.26v6.24A.28.28,0,0,0,70.41,50.87Z"/><path class="cls-2" d="M137.06,64.47H70.41a.27.27,0,0,0-.26.26V71a.27.27,0,0,0,.26.26h66.66a.27.27,0,0,0,.26-.26V64.73A.25.25,0,0,0,137.06,64.47Z"/><path class="cls-2" d="M70.41,82.53h31.5a.27.27,0,0,0,.26-.26V76a.27.27,0,0,0-.26-.26H70.41a.27.27,0,0,0-.26.26v6.24A.3.3,0,0,0,70.41,82.53Z"/><path class="cls-2" d="M137.06,96.1H70.41a.27.27,0,0,0-.26.26v6.24a.27.27,0,0,0,.26.26h66.66a.27.27,0,0,0,.26-.26V96.37A.25.25,0,0,0,137.06,96.1Z"/><path class="cls-2" d="M101.9,107.42H70.41a.27.27,0,0,0-.26.26v6.24a.27.27,0,0,0,.26.26h31.5a.27.27,0,0,0,.26-.26v-6.24A.25.25,0,0,0,101.9,107.42Z"/><polygon class="cls-2" points="42.13 41.7 36.37 35.9 30.35 41.9 36.13 47.67 42.11 53.7 48.11 47.72 61.89 34.02 55.92 28 42.13 41.7"/></g></g></g></svg>