<svg xmlns="http://www.w3.org/2000/svg" viewBox="0 0 226 226"><defs><style>.cls-1{fill:#299626;}.cls-2,.cls-3{fill:#fff;}.cls-2,.cls-4{stroke:#fff;stroke-miterlimit:10;}.cls-4{fill:none;stroke-width:1px;}</style></defs><title>planning</title><g id="Layer_2" data-name="Layer 2"><g id="buttonShapes"><rect class="cls-1" width="226" height="226" rx="12" ry="12"/></g><g id="buttonIcons"><polygon class="cls-2" points="181.51 151.01 189.51 151.01 189.51 173.03 185.16 173.03 185.16 162.02 181.51 162.02 181.51 151.01"/><path class="cls-3" d="M163.48,47l-.33-.3c-6.2-5.83-15.86,1.71-11.64,9.09A70.66,70.66,0,0,1,160.82,91v71H36.66V140.88a13.57,13.57,0,0,0,0-27.14V91q0-1.65.08-3.3c0-.39,0-.77.07-1.16,0-.69.1-1.38.15-2.08.06-.47.1-.94.15-1.42s.14-1.13.22-1.69.14-1.07.22-1.61c0-.29.11-.56.15-.85.25-1.43.54-2.85.87-4.24l.12-.54c.18-.77.39-1.53.61-2.3,0-.17.1-.34.14-.51.18-.61.36-1.2.55-1.79.06-.21.12-.4.19-.59a13.3,13.3,0,0,0,4.92.95,13.56,13.56,0,0,0,8.1-24.44,69.3,69.3,0,0,1,5.86-6.2c.14-.12.26-.26.41-.39.56-.54,1.14-1,1.73-1.55l.63-.54c.58-.5,1.16-1,1.75-1.43.23-.18.45-.37.7-.55.59-.47,1.2-.91,1.8-1.36.23-.15.45-.32.67-.48.65-.44,1.29-.89,1.94-1.32l.54-.34c.72-.47,1.44-.92,2.17-1.36h0a70.55,70.55,0,0,1,10.7-5.2l.28-.11c.84-.32,1.68-.62,2.52-.89l.5-.17c.83-.28,1.66-.54,2.5-.78l.52-.14c.85-.25,1.71-.47,2.59-.69l.4-.08c.73-.18,1.47-.34,2.21-.48.19,0,.37-.08.56-.11a13.56,13.56,0,0,0,27,0c.94.17,1.86.36,2.78.58l.4.08c.87.22,1.73.44,2.6.69l.5.14c.85.25,1.69.51,2.53.78l.45.15c.87.29,1.72.59,2.56.92l.25.1a70.22,70.22,0,0,1,9.89,4.73c1.06.61,2.09,1.24,3.11,1.9l.43.28c.67.44,1.35.91,2,1.38.22.14.43.29.63.44.62.45,1.24.91,1.84,1.38l.69.55c.59.47,1.17.94,1.73,1.42.23.19.45.39.67.59.56.48,1.13,1,1.69,1.5l.56.54A71.6,71.6,0,0,1,162,45.14l.33.39C162.68,46,163.08,46.52,163.48,47Zm-9.76,44a48.8,48.8,0,1,0-48.8,48.8A48.81,48.81,0,0,0,153.71,91Z"/><circle class="cls-3" cx="104.92" cy="90.98" r="21.47"/><path class="cls-3" d="M37.33,81.34c-.08.56-.15,1.13-.22,1.69C37.17,82.47,37.25,81.9,37.33,81.34Z"/><path class="cls-4" d="M37.33,81.34c-.08.56-.15,1.13-.22,1.69"/><line class="cls-4" x1="36.66" y1="113.74" x2="36.66" y2="140.88"/><path class="cls-4" d="M40.18,68.92c-.07.19-.14.39-.19.59-.19.59-.37,1.18-.55,1.79"/><path class="cls-4" d="M124,21.84c-.92-.22-1.84-.41-2.78-.58a69.41,69.41,0,0,0-13.51-1.32A70.45,70.45,0,0,0,94.2,21.25c-.19,0-.37.07-.56.11"/><path class="cls-4" d="M146.26,31.33c-1-.66-2-1.29-3.11-1.9"/><path class="cls-4" d="M40.18,68.92a71.07,71.07,0,0,1,13-23.49h0a13.56,13.56,0,0,1-8.1,24.44,13.3,13.3,0,0,1-4.92-.95h0c-.07.19-.12.4-.18.59-.19.59-.37,1.18-.55,1.79,0,.17-.1.34-.14.51-.22.77-.43,1.53-.61,2.3l-.12.54c-.33,1.39-.62,2.81-.87,4.24,0,.29-.11.56-.15.85-.08.54-.15,1.07-.22,1.61s-.17,1.13-.22,1.69S37,84,37,84.45c-.06.7-.11,1.39-.15,2.08,0,.39-.06.77-.07,1.16q-.08,1.65-.08,3.3v22.76a13.57,13.57,0,0,1,0,27.14V162H160.82"/><path class="cls-4" d="M163.48,47c-.4-.5-.8-1-1.2-1.49l-.33-.39a71.6,71.6,0,0,0-5.45-5.75l-.56-.54c-.56-.52-1.13-1-1.69-1.5-.22-.21-.44-.4-.67-.59-.56-.48-1.14-.95-1.73-1.42l-.69-.55c-.61-.47-1.22-.92-1.84-1.38-.21-.15-.41-.3-.63-.44-.65-.47-1.32-.94-2-1.38l-.43-.28c-1-.66-2-1.29-3.11-1.9a70.22,70.22,0,0,0-9.89-4.73l-.25-.1c-.84-.33-1.69-.63-2.56-.92l-.45-.15c-.84-.28-1.68-.54-2.53-.78l-.5-.14c-.87-.25-1.73-.47-2.6-.69l-.4-.08c-.92-.22-1.84-.43-2.78-.61v0a13.56,13.56,0,0,1-27,0h0c-.19,0-.39.07-.56.12-.74.14-1.49.3-2.21.48l-.4.08c-.88.22-1.73.44-2.59.69l-.52.14c-.84.25-1.68.51-2.5.78l-.5.17c-.84.28-1.68.58-2.52.89l-.28.11a70.55,70.55,0,0,0-10.7,5.2h0c-.73.44-1.46.89-2.17,1.36l-.54.34c-.65.43-1.29.88-1.94,1.32-.22.17-.44.33-.67.48-.61.45-1.21.89-1.8,1.36-.25.18-.47.37-.7.55-.59.47-1.17.94-1.75,1.43l-.63.54c-.59.51-1.17,1-1.73,1.55-.15.12-.28.26-.41.39a69.3,69.3,0,0,0-5.86,6.2"/><path class="cls-4" d="M160.82,162h17.91V91c0-1.16,0-2.31-.08-3.45,0-.39-.06-.76-.07-1.13-.06-.77-.11-1.53-.18-2.3,0-.44-.1-.88-.15-1.32-.08-.69-.17-1.38-.26-2-.07-.47-.14-.92-.22-1.38-.1-.66-.22-1.31-.34-2-.1-.47-.18-.94-.28-1.39-.14-.65-.29-1.28-.44-1.91-.11-.45-.22-.91-.34-1.35-.17-.65-.36-1.29-.55-1.93-.12-.43-.23-.85-.37-1.28-.22-.7-.47-1.39-.72-2.09-.11-.34-.22-.69-.34-1-.37-1-.77-2-1.18-3-.17-.39-.34-.77-.51-1.16-.26-.59-.54-1.2-.81-1.8-.22-.45-.45-.91-.69-1.36s-.51-1-.77-1.51l-.78-1.43c-.26-.45-.52-.92-.8-1.38s-.58-1-.88-1.43-.54-.85-.81-1.27-.63-1-1-1.46l-.83-1.14c-.36-.5-.7-1-1.07-1.47-.25-.33-.51-.66-.77-1l0-.07-.33-.3c-6.2-5.83-15.86,1.71-11.64,9.09A70.66,70.66,0,0,1,160.82,91Z"/><path class="cls-4" d="M104.92,139.78A48.8,48.8,0,1,0,56.12,91,48.8,48.8,0,0,0,104.92,139.78Z"/><circle class="cls-4" cx="104.92" cy="90.98" r="21.47"/></g></g></svg>