<svg xmlns="http://www.w3.org/2000/svg" viewBox="0 0 226 226"><defs><style>.cls-1{fill:#2a80b9;}.cls-2{fill:#fff;stroke:#fff;stroke-miterlimit:10;}</style></defs><title>polishing</title><g id="Layer_2" data-name="Layer 2"><g id="buttonShapes"><rect class="cls-1" width="226" height="226" rx="12" ry="12"/></g><g id="buttonIcons"><path class="cls-2" d="M68,136.19l-4-9.48A30,30,0,0,0,48.17,110.9l-9.48-4,9.48-4A30,30,0,0,0,64,87l4-9.48,4,9.48A30,30,0,0,0,87.9,102.81l9.48,4-9.48,4a30,30,0,0,0-15.81,15.81Z"/><path class="cls-2" d="M145.31,167.14l-3.08-7.2a22.82,22.82,0,0,0-12-12l-7.2-3.08,7.2-3.08a22.82,22.82,0,0,0,12-12l3.08-7.2,3.08,7.2a22.82,22.82,0,0,0,12,12l7.2,3.08-7.2,3.08a22.82,22.82,0,0,0-12,12Z"/><path class="cls-2" d="M153.64,94.6l-5.51-12.88a40.83,40.83,0,0,0-21.5-21.5l-12.88-5.51,12.88-5.51a40.83,40.83,0,0,0,21.5-21.5l5.51-12.88,5.51,12.88a40.83,40.83,0,0,0,21.5,21.5l12.88,5.51-12.88,5.51a40.83,40.83,0,0,0-21.5,21.5Z"/><path class="cls-1" d="M68,130.34l-3.24-7.58A24,24,0,0,0,52.14,110.1l-7.58-3.24,7.58-3.24A24,24,0,0,0,64.8,91L68,83.37,71.28,91a24,24,0,0,0,12.66,12.66l7.58,3.24-7.58,3.24a24,24,0,0,0-12.66,12.66Z"/><path class="cls-1" d="M145.31,162.69l-2.46-5.76a18.27,18.27,0,0,0-9.62-9.62l-5.76-2.46,5.76-2.46a18.27,18.27,0,0,0,9.62-9.62l2.46-5.76,2.46,5.76a18.27,18.27,0,0,0,9.62,9.62l5.76,2.46-5.76,2.46a18.27,18.27,0,0,0-9.62,9.62Z"/><path class="cls-1" d="M153.64,87.53l-4.41-10.31A32.68,32.68,0,0,0,132,60L121.71,55.6,132,51.2A32.68,32.68,0,0,0,149.23,34l4.41-10.31L158,34A32.68,32.68,0,0,0,175.25,51.2l10.31,4.41L175.25,60A32.68,32.68,0,0,0,158,77.22Z"/></g></g></svg>