<svg xmlns="http://www.w3.org/2000/svg" viewBox="0 0 167 167"><defs><style>.cls-1{fill:#9068b9;}.cls-2{fill:#fff;}</style></defs><title>reports</title><g id="Layer_2" data-name="Layer 2"><g id="elements"><g id="reports"><rect class="cls-1" width="167" height="167" rx="12" ry="12"/><path class="cls-2" d="M37.25,100.15v17.34a1.94,1.94,0,0,0,1.93,1.93H52.6a1.94,1.94,0,0,0,1.93-1.93V87l-9.74,9.74A11.81,11.81,0,0,1,37.25,100.15Z"/><path class="cls-2" d="M61.22,86.76v30.73a1.94,1.94,0,0,0,1.93,1.93H76.56a1.94,1.94,0,0,0,1.93-1.93V99.4A11.69,11.69,0,0,1,70.43,96Z"/><path class="cls-2" d="M85.18,97.49v20a1.94,1.94,0,0,0,1.93,1.93h13.41a1.94,1.94,0,0,0,1.93-1.93V80.58L87.09,95.95A11.51,11.51,0,0,1,85.18,97.49Z"/><path class="cls-2" d="M125.12,57.9l-16,16v43.61a1.94,1.94,0,0,0,1.93,1.93h13.41a1.94,1.94,0,0,0,1.93-1.93V59.1c-.44-.37-.77-.7-1-.92Z"/><path class="cls-2" d="M136.09,29.58a3.74,3.74,0,0,0-2.84-1h-.35l-18.71.88a4,4,0,0,0-2.88,1,3.28,3.28,0,0,0-.68,1,3.23,3.23,0,0,0,1,3.91l1.56,1.58c1.08,1.1,2.18,2.2,3.28,3.28L78.74,77.94,61.79,61a5.39,5.39,0,0,0-7.63,0L31.58,83.55a5.39,5.39,0,0,0,0,7.63l1,1a5.39,5.39,0,0,0,7.63,0L58,74.45,74.91,91.4a5.41,5.41,0,0,0,7.65,0l42.56-42.56,4.81,4.79A3.65,3.65,0,0,0,132.51,55a3.18,3.18,0,0,0,1.54-.42,4.19,4.19,0,0,0,.92-.68,4.47,4.47,0,0,0,1.17-3.1c.18-4,.37-8.09.57-12.16l.29-6.09A3.78,3.78,0,0,0,136.09,29.58Z"/></g></g></g></svg>