<svg xmlns="http://www.w3.org/2000/svg" viewBox="0 0 226 226"><defs><style>.cls-1{fill:#2a80b9;}.cls-2{fill:#fff;}</style></defs><title>rework</title><g id="Layer_2" data-name="Layer 2"><g id="buttonShapes"><rect class="cls-1" width="226" height="226" rx="12" ry="12"/><path class="cls-2" d="M87.84,35.31a2.32,2.32,0,0,0,1.78,4.14,36.86,36.86,0,0,1,27.24,6.16l5,3.51L51.46,149.44A12.64,12.64,0,1,0,72.15,164L142.58,63.63l2.34,1.64a4,4,0,0,0,5.58-1l2-2.86,6,4.18-2,2.85a4,4,0,0,0,1,5.58l12.2,8.56a4,4,0,0,0,5.58-1l13.63-19.42a4,4,0,0,0-1-5.58l-12.2-8.56a4,4,0,0,0-5.58,1l-2,2.85-6-4.18,2-2.85a4,4,0,0,0-1-5.58L144,25.85a23.55,23.55,0,0,0-12.67-4.26A67.93,67.93,0,0,0,87.84,35.31Z"/></g></g></svg>