<svg xmlns="http://www.w3.org/2000/svg" viewBox="0 0 226 226"><defs><style>.cls-1{fill:#2a80b9;}.cls-2,.cls-4,.cls-5{fill:#fff;}.cls-3{fill:none;}.cls-3,.cls-4,.cls-5{stroke:#fff;stroke-miterlimit:10;}.cls-4{stroke-width:0.71px;}.cls-5{font-size:16.5px;font-family:MyriadPro-Regular, Myriad Pro;}</style></defs><title>setout</title><g id="Layer_2" data-name="Layer 2"><g id="buttonShapes"><rect class="cls-1" width="226" height="226" rx="12" ry="12"/></g><g id="buttonIcons"><path class="cls-2" d="M125,24.41c2.22,1.55,11.25,4.79,10.47,18.18s-7.36,22.2-9.8,30-4,19.84-4,19.84L123,93.78l-38.72-1V86.1A266.36,266.36,0,0,1,115,89.9s1.45-11.27,2.68-17.3a40.18,40.18,0,0,1,2.46-6.94c2.6-6.16,6.27-14,6.56-20.4.46-9.26-4.44-12.93-13.15-13.84s-14.73,7.47-17.86,9.05S84.33,41,84.33,41V17.93C114.67,17.82,122.7,22.83,125,24.41Z"/><path class="cls-2" d="M126.9,96.3v8.43h-4.53s2.52.64,2.52,5.17-2.95,5.22-2.95,5.22a4.06,4.06,0,0,1,1.63,2.89c0,1.71-2.22,1.39-2.22,3.43s2.22,1.31,2.22,7.44-3.21,13.28-3.27,16,0,14.81,0,14.81a3.88,3.88,0,0,1,1.12,2.78c0,1.82-1.9,2.28-1.9,3.48s.4,4.69-2.06,4.69h-2.17c-2.46,0-2.06-3.48-2.06-4.69s-1.93-1.66-1.93-3.48a3.84,3.84,0,0,1,1.15-2.78s0-12.13,0-14.81-3.27-9.8-3.27-16,2.22-5.38,2.22-7.44-2.22-1.71-2.22-3.43a4.06,4.06,0,0,1,1.63-2.89s-2.95-.7-2.95-5.22,4.9-5.17,4.9-5.17H84.33v-7.6Z"/><path class="cls-2" d="M120.16,65.67a40.18,40.18,0,0,0-2.46,6.94s-21.1-4.9-33.36-4.44V61.79S108.43,60.63,120.16,65.67Z"/><path class="cls-2" d="M84.33,97.13v7.6H49.07a2.69,2.69,0,0,1-2.68-2.68V99.81a2.69,2.69,0,0,1,2.68-2.68Z"/><path class="cls-2" d="M84.33,86.1v6.69H56.19a.75.75,0,0,1-.72-.94.72.72,0,0,1,.4-.48C60.42,89.45,70.14,86.18,84.33,86.1Z"/><path class="cls-2" d="M84.33,63.77V66a2,2,0,0,1-1.85,2c-4.5.27-16.31,1.15-24.85,3a2,2,0,0,1-2.38-1.77l-.13-2a2,2,0,0,1,1.47-2.09,114.35,114.35,0,0,1,25.73-3.43A2,2,0,0,1,84.33,63.77Z"/><path class="cls-2" d="M84.33,17.93V41l-28.49,1.1a3,3,0,0,1-3.11-2.76l-1-12.4a2.85,2.85,0,0,1,.72-2.2C54.45,22.56,61.38,18,84.33,17.93Z"/><path class="cls-2" d="M53.35,107.84a2.59,2.59,0,0,1,2.57,2.65l-1.63,55.56a2.57,2.57,0,0,1-2.57,2.49h-.54A2.57,2.57,0,0,1,48.64,166V110.41a2.57,2.57,0,0,1,2.54-2.57Z"/><path class="cls-2" d="M52.95,87.7A2.39,2.39,0,0,1,51.61,90l-1.1.54a2.27,2.27,0,0,1-1,.24,2.39,2.39,0,0,1-2.36-2.12L40,24.51a2.38,2.38,0,0,1,2.09-2.62l2.81-.32a2.33,2.33,0,0,1,2.62,2.14l1.37,16L51.4,69.6Z"/><path class="cls-3" d="M49.49,90.81a2.39,2.39,0,0,1-2.36-2.12L40,24.51a2.38,2.38,0,0,1,2.09-2.62l2.81-.32a2.33,2.33,0,0,1,2.62,2.14l1.37,16L51.4,69.6l1.55,18.1A2.39,2.39,0,0,1,51.61,90l-1.1.54A2.27,2.27,0,0,1,49.49,90.81Z"/><path class="cls-3" d="M117.69,72.6s-21.1-4.9-33.36-4.44V86.1A266.36,266.36,0,0,1,115,89.9s1.45-11.27,2.68-17.3a40.18,40.18,0,0,1,2.46-6.94c2.6-6.16,6.27-14,6.56-20.4.46-9.26-4.44-12.93-13.15-13.84s-14.73,7.47-17.86,9.05S84.33,41,84.33,41l-28.49,1.1a3,3,0,0,1-3.11-2.76l-1-12.4a2.85,2.85,0,0,1,.72-2.2c2-2.22,8.94-6.77,31.89-6.85,30.34-.11,38.37,4.9,40.62,6.48s11.25,4.79,10.47,18.18-7.36,22.2-9.8,30-4,19.84-4,19.84L123,93.78l-38.72-1v4.34l42.57-.83v8.43h-4.53s2.52.64,2.52,5.17-2.95,5.22-2.95,5.22a4.06,4.06,0,0,1,1.63,2.89c0,1.71-2.22,1.39-2.22,3.43s2.22,1.31,2.22,7.44-3.21,13.28-3.27,16,0,14.81,0,14.81a3.88,3.88,0,0,1,1.12,2.78c0,1.82-1.9,2.28-1.9,3.48s.4,4.69-2.06,4.69h-2.17c-2.46,0-2.06-3.48-2.06-4.69s-1.93-1.66-1.93-3.48a3.84,3.84,0,0,1,1.15-2.78s0-12.13,0-14.81-3.27-9.8-3.27-16,2.22-5.38,2.22-7.44-2.22-1.71-2.22-3.43a4.06,4.06,0,0,1,1.63-2.89s-2.95-.7-2.95-5.22,4.9-5.17,4.9-5.17H49.07a2.69,2.69,0,0,1-2.68-2.68V99.81a2.69,2.69,0,0,1,2.68-2.68H84.33"/><path class="cls-3" d="M51.18,107.84h2.17a2.59,2.59,0,0,1,2.57,2.65l-1.63,55.56a2.57,2.57,0,0,1-2.57,2.49h-.54A2.57,2.57,0,0,1,48.64,166V110.41A2.57,2.57,0,0,1,51.18,107.84Z"/><path class="cls-3" d="M84.33,41V61.79s24.1-1.15,35.83,3.88"/><line class="cls-3" x1="84.33" y1="104.73" x2="84.33" y2="97.13"/><path class="cls-3" d="M55.47,91.86a.72.72,0,0,1,.4-.48c4.55-1.93,14.27-5.19,28.46-5.27v6.69H56.19A.75.75,0,0,1,55.47,91.86Z"/><path class="cls-3" d="M84.33,66a2,2,0,0,1-1.85,2c-4.5.27-16.31,1.15-24.85,3a2,2,0,0,1-2.38-1.77l-.13-2a2,2,0,0,1,1.47-2.09,114.35,114.35,0,0,1,25.73-3.43,2,2,0,0,1,2,2"/><line class="cls-3" x1="84.33" y1="17.93" x2="84.33" y2="41.03"/><polyline class="cls-3" points="84.33 61.79 84.33 63.77 84.33 66.04 84.33 68.16"/><line class="cls-4" x1="151.52" y1="17.94" x2="192.78" y2="17.94"/><line class="cls-4" x1="151.52" y1="170.61" x2="192.78" y2="170.61"/><line class="cls-4" x1="172.15" y1="65.66" x2="172.15" y2="17.94"/><line class="cls-4" x1="172.15" y1="171.04" x2="172.15" y2="123.31"/><text class="cls-5" transform="translate(166.45 81.79) rotate(90)">00m</text></g></g></svg>