<svg xmlns="http://www.w3.org/2000/svg" viewBox="0 0 167 167"><defs><style>.cls-1{fill:#c0392b;}.cls-2{fill:#fff;}</style></defs><title>week</title><g id="Layer_2" data-name="Layer 2"><g id="elements"><g id="week"><rect class="cls-1" width="167" height="167" rx="12" ry="12"/><path class="cls-2" d="M125.44,15.82v5.5a10.17,10.17,0,0,1-10.09,10.13h-.52a10.21,10.21,0,0,1-10.14-10.13V15.09h-11v6.23A10.2,10.2,0,0,1,83.52,31.46H83a10.17,10.17,0,0,1-10.1-10.13V15.09H61.69v6.23a10.08,10.08,0,0,1-10,10.13h-.51A10.13,10.13,0,0,1,41.13,21.32V15.91a16.05,16.05,0,0,0-11,15.31v71.72A16,16,0,0,0,46.19,119h74.39a16,16,0,0,0,16.08-16.06V31.22A16.14,16.14,0,0,0,125.44,15.82Zm3.23,85.63a9.32,9.32,0,0,1-9.3,9.35h-72a9.33,9.33,0,0,1-9.31-9.35v-51a6.29,6.29,0,0,1,6.34-6.3h77.93a6.27,6.27,0,0,1,6.32,6.3v51Z"/><path class="cls-2" d="M51.19,26.51h.51a5.18,5.18,0,0,0,4-1.79,5.12,5.12,0,0,0,1.26-3.39h0V14.19h0a5.23,5.23,0,0,0-1.5-3.7l0,0s0,0,0,0A5.21,5.21,0,0,0,51.7,9h-.51a5.21,5.21,0,0,0-3.71,1.49h-.05a5.23,5.23,0,0,0-1.53,3.69h0v7.13h0a5.15,5.15,0,0,0,1.29,3.39A5.24,5.24,0,0,0,51.19,26.51Z"/><path class="cls-2" d="M80,25.67l0,0s0,0,.06,0a5.23,5.23,0,0,0,2.91.83h.51A5.18,5.18,0,0,0,86,25.92h0s0,0,0,0a5.21,5.21,0,0,0,2.67-4.59V14.19a5.23,5.23,0,0,0-2-4.19s0,0,0,0v0a5.16,5.16,0,0,0-3.14-1H83a5.21,5.21,0,0,0-3.53,1.32v0l-.07,0a5.26,5.26,0,0,0-1.74,3.86v7.14A5.29,5.29,0,0,0,80,25.67Z"/><path class="cls-2" d="M114.84,26.51h.51a5.3,5.3,0,0,0,4-1.79,5.17,5.17,0,0,0,1.31-3.39h0V14.19h0a5.31,5.31,0,0,0-2.77-4.62h0l-.41-.19-.07,0-.1,0-.15-.06-.08,0c-.05,0-.11,0-.17,0a5.25,5.25,0,0,0-1.56-.2h-.51a5,5,0,0,0-.76,0,5.19,5.19,0,0,0-4.43,5.16v7.14A5.13,5.13,0,0,0,114.84,26.51Z"/><rect class="cls-2" x="67.33" y="52" width="12.91" height="11.4"/><rect class="cls-2" x="88.21" y="52" width="12.93" height="11.4"/><rect class="cls-2" x="107.57" y="52" width="12.91" height="11.4"/><rect class="cls-2" x="67.33" y="70.93" width="12.91" height="11.39"/><rect class="cls-2" x="88.21" y="70.93" width="12.93" height="11.39"/><rect class="cls-2" x="107.57" y="70.93" width="12.91" height="11.39"/><rect class="cls-2" x="67.33" y="90.24" width="12.91" height="11.39"/><rect class="cls-2" x="46.82" y="70.93" width="12.91" height="11.39"/><rect class="cls-2" x="46.82" y="90.24" width="12.91" height="11.39"/><rect class="cls-2" x="88.21" y="90.24" width="12.93" height="11.39"/><rect class="cls-2" x="107.57" y="90.24" width="12.91" height="11.39"/></g></g></g></svg>