<?xml version="1.0" encoding="UTF-8" standalone="no"?>
<svg
   xmlns:dc="http://purl.org/dc/elements/1.1/"
   xmlns:cc="http://creativecommons.org/ns#"
   xmlns:rdf="http://www.w3.org/1999/02/22-rdf-syntax-ns#"
   xmlns:svg="http://www.w3.org/2000/svg"
   xmlns="http://www.w3.org/2000/svg"
   viewBox="0 0 897.05334 222.41333"
   height="222.41333"
   width="897.05334"
   xml:space="preserve"
   id="svg2"
   version="1.1"><metadata
     id="metadata8"><rdf:RDF><cc:Work
         rdf:about=""><dc:format>image/svg+xml</dc:format><dc:type
           rdf:resource="http://purl.org/dc/dcmitype/StillImage" /></cc:Work></rdf:RDF></metadata><defs
     id="defs6" /><g
     transform="matrix(1.3333333,0,0,-1.3333333,0,222.41333)"
     id="g10"><g
       transform="scale(0.1)"
       id="g12"><path
         id="path14"
         style="fill:#656263;fill-opacity:1;fill-rule:nonzero;stroke:none"
         d="m 2714.1,1296.91 c -6.46,88.35 -49.84,139.04 -118.12,139.04 -76.57,0 -122.75,-83.72 -122.75,-247.45 0,-119.01 20.34,-230.957 131.08,-230.957 70.1,0 103.33,62.477 111.62,143.787 h 209.59 c -19.46,-219.178 -142.25,-351.228 -317.51,-351.228 -219.63,0 -352.58,172.105 -352.58,447.788 0,274.54 145.82,445.34 331.33,445.34 203.09,0 316.54,-128.39 334.09,-346.32 H 2714.1" /><path
         id="path16"
         style="fill:#656263;fill-opacity:1;fill-rule:nonzero;stroke:none"
         d="m 2963.3,772.523 238.02,848.407 h 221.66 L 3661.01,772.523 H 3444.1 l -25.83,111.95 h -216.95 l -24.89,-111.95 z m 347,592.757 -67.38,-303.99 h 137.49 z" /><path
         id="path18"
         style="fill:#656263;fill-opacity:1;fill-rule:nonzero;stroke:none"
         d="m 4081.82,1374.62 c -3.73,29.57 -15.68,47.16 -31.36,57.76 -15.6,10.64 -35.09,15.35 -56.21,15.35 -48.02,0 -69.3,-17.71 -69.3,-48.34 0,-127.21 382.06,-48.33 382.06,-357.11 0,-196.721 -128.36,-292.178 -310.97,-292.178 -175.41,0 -289.78,130.918 -294.33,284.048 h 208.46 c 4.7,-30.67 17.62,-53.045 36.06,-67.181 17.55,-14.055 40.54,-21.285 61.83,-21.285 54.42,0 90.49,22.421 90.49,62.466 0,128.44 -382.22,40.14 -382.22,364.11 0,180.27 121.85,270.97 288.06,270.97 184.58,0 268.5,-120.11 284.17,-268.61 h -206.74" /><path
         id="path20"
         style="fill:#656263;fill-opacity:1;fill-rule:nonzero;stroke:none"
         d="m 4347.71,772.523 238.11,848.407 h 221.53 l 238.11,-848.407 h -216.98 l -25.76,111.95 h -216.9 l -24.94,-111.95 z m 346.97,592.757 -67.35,-303.99 h 137.53 z" /><path
         id="path22"
         style="fill:#656263;fill-opacity:1;fill-rule:nonzero;stroke:none"
         d="m 5115.65,772.523 v 848.407 h 291.57 c 214.05,0 347.04,-127.38 347.04,-406.51 0,-319.346 -139.41,-441.897 -352.65,-441.897 z m 217.72,198.02 h 46.06 c 101.62,0 157.03,68.317 157.03,228.517 0,176.86 -45.33,223.89 -161.67,223.89 h -41.42 V 970.543" /><path
         id="path24"
         style="fill:#656263;fill-opacity:1;fill-rule:nonzero;stroke:none"
         d="m 5843.7,772.523 v 848.407 h 541.86 V 1422.95 H 6061.5 v -121.32 h 274.18 V 1103.69 H 6061.5 V 970.543 h 336.98 V 772.523 H 5843.7" /><path
         id="path26"
         style="fill:#656263;fill-opacity:1;fill-rule:nonzero;stroke:none"
         d="m 6510.02,1620.93 h 217.87 V 772.523 h -217.87 v 848.407" /><path
         id="path28"
         style="fill:#e45e16;fill-opacity:1;fill-rule:nonzero;stroke:none"
         d="M 1120.35,1667.56 0,0 h 496.316 l 624.034,932.727 v 734.833" /><path
         id="path30"
         style="fill:#e45e16;fill-opacity:1;fill-rule:nonzero;stroke:none"
         d="m 1617.29,1668.13 -496.94,-736.013 0.57,-733.539 496.37,734.149 v 735.403" /><path
         id="path32"
         style="fill:#e45e16;fill-opacity:1;fill-rule:nonzero;stroke:none"
         d="m 2113.64,931.02 v 734.76 l -496.93,-735.37 1.14,-734.148 493.19,731.023" /><path
         id="path34"
         style="fill:#656263;fill-opacity:1;fill-rule:nonzero;stroke:none"
         d="m 4873.48,366.672 h 51.27 l -26.09,89.027 z M 6619.93,282.09 h -207.32 v 248.469 h 202.45 v -58.047 h -121.05 v -35.453 h 102.45 V 379.09 h -102.45 v -39.078 h 125.92 z m -275.15,0 h -76.36 l -88.63,135.269 3.16,-56.589 v -78.68 h -77.99 v 248.469 h 76.29 l 88.62,-135.618 -3.16,56.618 v 79 h 78.07 z m -308.05,0 h -81.49 v 248.43 h 81.49 z m -149.32,0 h -81.48 v 96.269 h -76.85 V 282.09 h -81.4 v 248.469 h 81.4 V 446.68 h 76.85 v 83.879 h 81.48 z m -460.87,121.898 c 0,-34.968 7.64,-67.629 49.08,-67.629 26.24,0 38.58,18.2 41.67,42 h 78.39 c -7.31,-64.14 -53.12,-102.73 -118.69,-102.73 -82.05,0 -131.84,50.332 -131.84,131.082 0,80.348 54.59,130.469 123.88,130.469 75.88,0 118.37,-37.649 124.94,-101.508 h -77.33 c -2.44,25.879 -18.6,40.738 -44.11,40.738 -28.76,0 -45.99,-24.449 -45.99,-72.422 m -286.19,0 c 0,-34.968 7.47,-67.629 48.99,-67.629 26.15,0 38.58,18.2 41.75,42 h 78.23 c -7.15,-64.14 -53.05,-102.73 -118.53,-102.73 -82.21,0 -131.92,50.332 -131.92,131.082 0,80.348 54.59,130.469 123.81,130.469 76.03,0 118.43,-37.649 125.09,-101.508 h -77.33 c -2.52,25.879 -18.68,40.738 -44.03,40.738 -28.76,0 -46.06,-24.449 -46.06,-72.422 M 5029.7,282.09 h -81.16 l -9.58,32.832 h -81.16 l -9.18,-32.832 h -79.77 l 88.95,248.469 h 82.86 z m -303.1,0 h -73.27 v 76.039 l 1.13,38.59 4.07,44.851 h -0.66 l -45.16,-159.48 h -56.63 l -45.16,159.48 h -0.81 l 3.48,-36.64 1.71,-38.508 V 282.09 h -73.11 v 248.469 h 98.38 l 43.79,-154.957 43.86,154.957 h 98.38 z M 6727.41,616.711 H 2259.98 V 194.309 h 4467.43 v 422.402" /></g></g></svg>