<svg xmlns="http://www.w3.org/2000/svg" viewBox="0 0 226 226"><defs><style>.cls-1{fill:#2a80b9;}.cls-2,.cls-3,.cls-4,.cls-5,.cls-6,.cls-7{fill:#fff;stroke:#fff;}.cls-2,.cls-3,.cls-4,.cls-5,.cls-6{stroke-miterlimit:10;}.cls-3{stroke-width:2.83px;}.cls-4{stroke-width:0.71px;}.cls-5{stroke-width:1px;}.cls-6{stroke-width:1.42px;}.cls-7{stroke-linecap:round;stroke-linejoin:round;}</style></defs><title>machining</title><g id="Layer_2" data-name="Layer 2"><g id="buttonShapes"><rect class="cls-1" width="226" height="226" rx="12" ry="12"/></g><g id="buttonIcons"><polyline class="cls-2" points="162.87 99.19 182.51 99.19 182.51 88.79 29.68 88.79 29.68 99.19 49.32 99.19"/><rect class="cls-3" x="49.32" y="90.98" width="113.55" height="27.73"/><polygon class="cls-2" points="151.55 168.14 60.64 168.14 60.64 145.97 57.89 132.94 57.89 117.33 154.3 117.33 154.3 132.94 151.55 145.97 151.55 168.14"/><rect class="cls-2" x="57.89" y="78.06" width="96.41" height="11.54"/><path class="cls-4" d="M104.32,102.47A7.34,7.34,0,0,1,106.09,88v1.74l1.51-1.58a7.34,7.34,0,0,1-1.51,14.51V100.4Z"/><circle class="cls-2" cx="106.09" cy="95.35" r="3.37"/><path class="cls-2" d="M99.8,63.71l-6.22,6.22a1.13,1.13,0,0,0,.8,1.93h23.43a1.13,1.13,0,0,0,.8-1.93l-6.4-6.4a1.13,1.13,0,0,0-.82-.33l-10.81.18A1.13,1.13,0,0,0,99.8,63.71Z"/><polygon class="cls-5" points="110.51 15.31 101.68 15.31 101.68 63.2 110.51 63.2 110.51 24.14 182.51 24.14 182.51 15.31 110.51 15.31"/><line class="cls-5" x1="114.36" y1="24.14" x2="119.13" y2="15.31"/><line class="cls-5" x1="123.46" y1="24.14" x2="128.23" y2="15.31"/><line class="cls-5" x1="132.55" y1="24.14" x2="137.33" y2="15.31"/><line class="cls-5" x1="141.65" y1="24.14" x2="146.43" y2="15.31"/><line class="cls-5" x1="150.75" y1="24.14" x2="155.52" y2="15.31"/><line class="cls-5" x1="159.85" y1="24.14" x2="164.62" y2="15.31"/><line class="cls-5" x1="168.94" y1="24.14" x2="173.72" y2="15.31"/><line class="cls-5" x1="101.68" y1="22.34" x2="110.51" y2="27.11"/><line class="cls-5" x1="101.68" y1="31.44" x2="110.51" y2="36.21"/><line class="cls-5" x1="101.68" y1="40.53" x2="110.51" y2="45.31"/><line class="cls-5" x1="101.68" y1="49.63" x2="110.51" y2="54.41"/><line class="cls-5" x1="110.51" y1="24.14" x2="106.09" y2="15.31"/><line class="cls-6" x1="72.8" y1="124.11" x2="72.8" y2="144.85"/><line class="cls-6" x1="83.17" y1="134.62" x2="62.43" y2="134.62"/><circle class="cls-2" cx="72.8" cy="134.62" r="10.23"/><circle class="cls-2" cx="72.8" cy="134.62" r="1.81"/><circle class="cls-2" cx="71.03" cy="161.39" r="1.35"/><circle class="cls-2" cx="71.03" cy="154.47" r="1.35"/><line class="cls-5" x1="70.99" y1="154.47" x2="70.99" y2="160.04"/><circle class="cls-2" cx="144.82" cy="137.83" r="1.35" transform="translate(-55.04 142.77) rotate(-45)"/><circle class="cls-2" cx="139.92" cy="132.94" r="1.35" transform="translate(-53.02 137.88) rotate(-45)"/><line class="cls-5" x1="139.9" y1="132.96" x2="143.83" y2="136.9"/><path class="cls-7" d="M66.41,161.39a4.59,4.59,0,1,1,9.18,0"/></g></g></svg>