<svg xmlns="http://www.w3.org/2000/svg" viewBox="0 0 226 226"><defs><style>.cls-1{fill:#299626;}.cls-2{fill:#fff;}</style></defs><title>unloading</title><g id="Layer_2" data-name="Layer 2"><g id="buttonShapes"><rect class="cls-1" width="226" height="226" rx="12" ry="12"/><path class="cls-2" d="M47.61,45.75a16.48,16.48,0,1,1,31.3-10.33l32.38,98.14a21.64,21.64,0,0,0-9.43-.36l-31.35-95A7.64,7.64,0,0,0,56,43a4.42,4.42,0,1,1-8.4,2.77Zm127.58,77-53.06,17.51a21.67,21.67,0,0,1,4.32,7.55c0,.1.05.21.08.31l51.42-17a4.42,4.42,0,1,0-2.77-8.4Zm-52.93,26.44a17.37,17.37,0,1,1-21.94-11.05A17.37,17.37,0,0,1,122.26,149.18ZM114,151.9a8.69,8.69,0,1,0-5.53,11A8.69,8.69,0,0,0,114,151.9Zm47.77-95.74,18,54.59a2.21,2.21,0,0,1-1.41,2.79L121.7,132.26a2.21,2.21,0,0,1-2.79-1.41l-18-54.59a2.21,2.21,0,0,1,1.41-2.79L159,54.76A2.21,2.21,0,0,1,161.78,56.17Zm-7.5,31.71L135,77.26l-9.19,20,6.08,2.8,4-8.66L143,113.17l6.87-2.27-7.17-21.74,8.35,4.59ZM137.44,55.31l-11.52-34.9a1.41,1.41,0,0,0-1.79-.9l-9.87,3.26,0,.09-.08,0-5.21,1.72,4.29,13-5.88,1.94-4.29-13-5.21,1.72,0,.09-.09,0-9.81,3.24a1.41,1.41,0,0,0-.9,1.79l11.52,34.9a1.41,1.41,0,0,0,1.79.9l36.25-12A1.41,1.41,0,0,0,137.44,55.31Z"/></g></g></svg>