<svg xmlns="http://www.w3.org/2000/svg" viewBox="0 0 167 167"><defs><style>.cls-1{fill:#c0392b;}.cls-2{fill:#fff;}</style></defs><title>inprogress_1</title><g id="Layer_2" data-name="Layer 2"><g id="elements"><g id="inprogress"><rect class="cls-1" width="167" height="167" rx="12" ry="12"/><path class="cls-2" d="M60.23,23a1.61,1.61,0,0,0,1.24,2.88,25.64,25.64,0,0,1,18.95,4.29l3.49,2.44-49,69.79a8.79,8.79,0,1,0,14.39,10.1l49-69.8,1.63,1.14a2.79,2.79,0,0,0,3.88-.68l1.4-2,4.15,2.91-1.39,2a2.79,2.79,0,0,0,.68,3.88l8.49,6a2.79,2.79,0,0,0,3.88-.68l9.48-13.51a2.79,2.79,0,0,0-.68-3.88l-8.49-6a2.79,2.79,0,0,0-3.88.68l-1.39,2-4.15-2.91,1.39-2a2.79,2.79,0,0,0-.68-3.88L99.29,16.44a16.38,16.38,0,0,0-8.82-3A47.26,47.26,0,0,0,60.23,23Z"/></g></g></g></svg>