<svg xmlns="http://www.w3.org/2000/svg" viewBox="0 0 167 167"><defs><style>.cls-1{fill:#ff5e00;}.cls-2{fill:#fff;}</style></defs><title>shifts</title><g id="Layer_2" data-name="Layer 2"><g id="elements"><g id="shifts"><rect class="cls-1" width="167" height="167" rx="12" ry="12"/><g id="Layer_1-2" data-name="Layer 1"><path class="cls-2" d="M149,60.3a2.51,2.51,0,0,0-2.27-1.44h-7.43a55.08,55.08,0,1,0-6.45,37.6,5,5,0,0,0-8.67-5,45.15,45.15,0,1,1,4.87-32.57h-7.37A2.51,2.51,0,0,0,119.76,63l12.53,15a2.51,2.51,0,0,0,3.85,0l12.53-15A2.5,2.5,0,0,0,149,60.3Z"/><path class="cls-2" d="M85.12,26.29a5,5,0,0,0-5,5V61.7a8.76,8.76,0,0,0,5,16,8.66,8.66,0,0,0,3.7-.85l17.43,10.06a5,5,0,0,0,2.5.67,5,5,0,0,0,2.51-9.35L93.81,68.12a8.73,8.73,0,0,0-3.68-6.41V31.3A5,5,0,0,0,85.12,26.29Zm0,46.35a3.76,3.76,0,1,1,3.76-3.76A3.76,3.76,0,0,1,85.12,72.64Z"/></g></g></g></g></svg>